<svg width="17" height="16" viewBox="0 0 17 16" fill="none" xmlns="http://www.w3.org/2000/svg">
<path d="M3.94984 13H12.7165L11.6665 5.66663H4.99984L3.94984 13ZM8.33317 4.66663C8.62206 4.66663 8.86095 4.5694 9.04984 4.37496C9.23873 4.18051 9.33317 3.9444 9.33317 3.66663C9.33317 3.37774 9.23873 3.13885 9.04984 2.94996C8.86095 2.76107 8.62206 2.66663 8.33317 2.66663C8.05539 2.66663 7.81928 2.76107 7.62484 2.94996C7.43039 3.13885 7.33317 3.37774 7.33317 3.66663C7.33317 3.9444 7.43039 4.18051 7.62484 4.37496C7.81928 4.5694 8.05539 4.66663 8.33317 4.66663ZM10.0665 4.66663H11.6665C11.9221 4.66663 12.1443 4.74718 12.3332 4.90829C12.5221 5.0694 12.6332 5.27774 12.6665 5.53329L13.6998 12.8666C13.7443 13.1666 13.6693 13.4305 13.4748 13.6583C13.2804 13.8861 13.0276 14 12.7165 14H3.94984C3.63873 14 3.38595 13.8861 3.1915 13.6583C2.99706 13.4305 2.92206 13.1666 2.9665 12.8666L3.99984 5.53329C4.03317 5.27774 4.14428 5.0694 4.33317 4.90829C4.52206 4.74718 4.74428 4.66663 4.99984 4.66663H6.59984C6.51095 4.51107 6.44428 4.35274 6.39984 4.19163C6.35539 4.03051 6.33317 3.85551 6.33317 3.66663C6.33317 3.11107 6.52762 2.63885 6.9165 2.24996C7.30539 1.86107 7.77762 1.66663 8.33317 1.66663C8.88873 1.66663 9.36095 1.86107 9.74984 2.24996C10.1387 2.63885 10.3332 3.11107 10.3332 3.66663C10.3332 3.85551 10.3109 4.03051 10.2665 4.19163C10.2221 4.35274 10.1554 4.51107 10.0665 4.66663ZM3.94984 13H12.7165H3.94984Z" fill="#1D1D1D"/>
</svg>
